TITLE ""
FILE "DISC2Track18.mp3" MP3
  TRACK 01 AUDIO
    TITLE "DISC2Track18_01"
    INDEX 01 00:00:00
  TRACK 02 AUDIO
    TITLE "DISC2Track18_02"
    INDEX 01 00:01:49
  TRACK 03 AUDIO
    TITLE "DISC2Track18_03"
    INDEX 01 00:01:65
  TRACK 04 AUDIO
    TITLE "DISC2Track18_04"
    INDEX 01 00:05:35
  TRACK 05 AUDIO
    TITLE "DISC2Track18_05"
    INDEX 01 00:08:18
  TRACK 06 AUDIO
    TITLE "DISC2Track18_06"
    INDEX 01 00:10:48
  TRACK 07 AUDIO
    TITLE "DISC2Track18_07"
    INDEX 01 00:10:66
  TRACK 08 AUDIO
    TITLE "DISC2Track18_08"
    INDEX 01 00:14:28
  TRACK 09 AUDIO
    TITLE "DISC2Track18_09"
    INDEX 01 00:18:38
  TRACK 10 AUDIO
    TITLE "DISC2Track18_10"
    INDEX 01 00:22:18
  TRACK 11 AUDIO
    TITLE "DISC2Track18_11"
    INDEX 01 00:22:28
  TRACK 12 AUDIO
    TITLE "DISC2Track18_12"
    INDEX 01 00:25:73
  TRACK 13 AUDIO
    TITLE "DISC2Track18_13"
    INDEX 01 00:29:14
  TRACK 14 AUDIO
    TITLE "DISC2Track18_14"
    INDEX 01 00:32:08
  TRACK 15 AUDIO
    TITLE "DISC2Track18_15"
    INDEX 01 00:32:22
  TRACK 16 AUDIO
    TITLE "DISC2Track18_16"
    INDEX 01 00:36:61
  TRACK 17 AUDIO
    TITLE "DISC2Track18_17"
    INDEX 01 00:41:43
  TRACK 18 AUDIO
    TITLE "DISC2Track18_18"
    INDEX 01 00:46:03
  TRACK 19 AUDIO
    TITLE "DISC2Track18_19"
    INDEX 01 00:46:16
  TRACK 20 AUDIO
    TITLE "DISC2Track18_20"
    INDEX 01 00:48:74
  TRACK 21 AUDIO
    TITLE "DISC2Track18_21"
    INDEX 01 00:51:35
  TRACK 22 AUDIO
    TITLE "DISC2Track18_22"
    INDEX 01 00:53:36
  TRACK 23 AUDIO
    TITLE "DISC2Track18_23"
    INDEX 01 00:53:52
  TRACK 24 AUDIO
    TITLE "DISC2Track18_24"
    INDEX 01 00:57:30
  TRACK 25 AUDIO
    TITLE "DISC2Track18_25"
    INDEX 01 01:00:30
  TRACK 26 AUDIO
    TITLE "DISC2Track18_26"
    INDEX 01 01:02:72
  TRACK 27 AUDIO
    TITLE "DISC2Track18_27"
    INDEX 01 01:03:09
  TRACK 28 AUDIO
    TITLE "DISC2Track18_28"
    INDEX 01 01:06:62
  TRACK 29 AUDIO
    TITLE "DISC2Track18_29"
    INDEX 01 01:10:13
  TRACK 30 AUDIO
    TITLE "DISC2Track18_30"
    INDEX 01 01:13:03
  TRACK 31 AUDIO
    TITLE "DISC2Track18_31"
    INDEX 01 01:13:17
  TRACK 32 AUDIO
    TITLE "DISC2Track18_32"
    INDEX 01 01:16:74
  TRACK 33 AUDIO
    TITLE "DISC2Track18_33"
    INDEX 01 01:21:07
  TRACK 34 AUDIO
    TITLE "DISC2Track18_34"
    INDEX 01 01:24:60
  TRACK 35 AUDIO
    TITLE "DISC2Track18_35"
    INDEX 01 01:25:03
  TRACK 36 AUDIO
    TITLE "DISC2Track18_36"
    INDEX 01 01:28:72
  TRACK 37 AUDIO
    TITLE "DISC2Track18_37"
    INDEX 01 01:32:22
  TRACK 38 AUDIO
    TITLE "DISC2Track18_38"
    INDEX 01 01:35:07
  TRACK 39 AUDIO
    TITLE "DISC2Track18_39"
    INDEX 01 01:35:30
  TRACK 40 AUDIO
    TITLE "DISC2Track18_40"
    INDEX 01 01:38:48
  TRACK 41 AUDIO
    TITLE "DISC2Track18_41"
    INDEX 01 01:41:37
  TRACK 42 AUDIO
    TITLE "DISC2Track18_42"
    INDEX 01 01:43:65
